<svg xmlns="http://www.w3.org/2000/svg" viewBox="0 0 64 64" role="img" aria-label="POOKA">
  <title>POOKA</title>
  <rect width="64" height="64" rx="12" fill="#0B3E3A"/>
  <path fill="#FBFBF9" transform="translate(15.11 50.12) scale(0.04186 -0.04186)"
        d="M55 854C49 848 48 16 55 10C61 3 156 3 162 10C165 13 166 55 166 174V333H327C534 333 562 337 624 368C667 388 709 430 729 472C747 507 757 556 757 605C757 734 700 817 585 851C559 859 557 859 310 860C115 862 60 861 56 857ZM528 753C558 746 590 729 607 711C644 670 655 592 631 528C616 484 567 449 513 442C474 436 179 437 174 443C168 449 168 750 174 756C177 760 220 761 342 761C474 761 509 760 529 755Z"/>
</svg>
