<svg xmlns="http://www.w3.org/2000/svg" viewBox="0 0 4808 885"
     role="img" aria-label="POOKA">
  <title>POOKA</title>
  <path fill="currentColor" transform="translate(-50 879) scale(1 -1)"
        d="M55.0 854C49.0 848 48.0 16 55.0 10C61.0 3 156.0 3 162.0 10C165.0 13 166.0 55 166.0 174V333H327.0C534.0 333 562.0 337 624.0 368C667.0 388 709.0 430 729.0 472C747.0 507 757.0 556 757.0 605C757.0 734 700.0 817 585.0 851C559.0 859 557.0 859 310.0 860C115.0 862 60.0 861 56.0 857ZM528.0 753C558.0 746 590.0 729 607.0 711C644.0 670 655.0 592 631.0 528C616.0 484 567.0 449 513.0 442C474.0 436 179.0 437 174.0 443C168.0 449 168.0 750 174.0 756C177.0 760 220.0 761 342.0 761C474.0 761 509.0 760 529.0 755ZM1289.0 867C1216.0 860 1134.0 829 1075.0 789C960.0 711 893.0 578 893.0 425C893.0 337 919.0 250 967.0 178C1025.0 91 1124.0 26 1232.0 4C1441.0 -38 1643.0 52 1731.0 227C1777.0 321 1788.0 453 1756.0 565C1743.0 608 1709.0 676 1681.0 710C1593.0 820 1437.0 882 1290.0 866ZM1389.0 759C1511.0 739 1606.0 655 1644.0 533C1654.0 502 1654.0 496 1654.0 429C1654.0 362 1654.0 356 1644.0 325C1610.0 212 1532.0 136 1418.0 107C1389.0 99 1376.0 98 1333.0 98C1289.0 98 1276.0 100 1245.0 107C1154.0 131 1087.0 185 1047.0 266C1025.0 309 1016.0 340 1010.0 393C1002.0 485 1025.0 573 1076.0 643C1121.0 704 1198.0 749 1277.0 761C1307.0 764 1361.0 764 1388.0 760ZM2312.0 867C2239.0 860 2157.0 829 2098.0 789C1983.0 711 1916.0 578 1916.0 425C1916.0 337 1942.0 250 1990.0 178C2048.0 91 2147.0 26 2255.0 4C2464.0 -38 2666.0 52 2754.0 227C2800.0 321 2811.0 453 2779.0 565C2766.0 608 2732.0 676 2704.0 710C2616.0 820 2460.0 882 2313.0 866ZM2412.0 759C2534.0 739 2629.0 655 2667.0 533C2677.0 502 2677.0 496 2677.0 429C2677.0 362 2677.0 356 2667.0 325C2633.0 212 2555.0 136 2441.0 107C2412.0 99 2399.0 98 2356.0 98C2312.0 98 2299.0 100 2268.0 107C2177.0 131 2110.0 185 2070.0 266C2048.0 309 2039.0 340 2033.0 393C2025.0 485 2048.0 573 2099.0 643C2144.0 704 2221.0 749 2300.0 761C2330.0 764 2384.0 764 2411.0 760ZM2949.0 854C2945.0 851 2944.0 757 2944.0 431C2944.0 79 2945.0 12 2949.0 8C2953.0 6 2971.0 5 3005.0 6H3056.0L3058.0 138L3060.0 270L3119.0 326C3151.0 356 3179.0 380 3181.0 380C3185.0 379 3260.0 293 3423.0 105L3510.0 3H3583.0C3653.0 3 3657.0 3 3657.0 10C3657.0 13 3612.0 67 3551.0 134C3401.0 301 3271.0 449 3270.0 455C3269.0 461 3344.0 538 3529.0 725C3618.0 814 3647.0 846 3645.0 851C3644.0 855 3635.0 856 3578.0 856H3512.0L3290.0 633C3168.0 511 3067.0 412 3066.0 413C3064.0 415 3062.0 515 3061.0 635L3059.0 854L3008.0 855C2970.0 857 2954.0 856 2952.0 852ZM4606.0 867C4606.0 860 4607.0 859 4624.0 859H4642.0V805V752H4653.0H4664.0V805V859H4682.0C4700.0 859 4705.0 863 4705.0 874C4705.0 877 4683.0 878 4656.0 878H4605.0V868ZM4730.0 814V751L4740.0 752C4748.0 755 4748.0 755 4748.0 798C4748.0 823 4749.0 843 4750.0 843C4752.0 843 4761.0 832 4771.0 817C4780.0 803 4790.0 791 4791.0 791C4793.0 791 4803.0 803 4814.0 818L4835.0 844V800L4836.0 754H4847.0H4858.0V817V879H4846.0C4836.0 879 4832.0 875 4815.0 851C4804.0 836 4794.0 824 4792.0 824C4791.0 824 4781.0 836 4770.0 851C4755.0 874 4750.0 879 4740.0 879H4730.0V815ZM4197.0 861C4173.0 855 4164.0 845 4142.0 803C4120.0 759 4065.0 634 3990.0 462C3947.0 366 3861.0 172 3810.0 56C3800.0 34 3793.0 14 3793.0 12C3795.0 5 3905.0 5 3910.0 12C3914.0 16 3960.0 120 3991.0 192C3998.0 209 4005.0 224 4009.0 226C4018.0 234 4414.0 234 4423.0 227C4426.0 225 4449.0 177 4473.0 120C4498.0 63 4520.0 15 4522.0 13C4525.0 10 4540.0 9 4584.0 10C4638.0 10 4642.0 11 4642.0 17C4643.0 22 4633.0 49 4620.0 78C4606.0 107 4557.0 217 4511.0 323C4465.0 429 4403.0 570 4374.0 636C4307.0 790 4281.0 841 4268.0 850C4257.0 859 4233.0 866 4222.0 866C4217.0 865 4207.0 864 4200.0 863ZM4302.0 525C4343.0 429 4378.0 347 4378.0 342L4379.0 332H4220.0C4086.0 331 4062.0 332 4060.0 336C4059.0 340 4072.0 373 4088.0 411C4105.0 448 4138.0 527 4164.0 584C4189.0 643 4211.0 693 4213.0 695C4214.0 698 4218.0 700 4220.0 699C4223.0 698 4258.0 620 4301.0 525Z"/>
</svg>
